<svg width="56" height="31" viewBox="0 0 56 31" fill="none" xmlns="http://www.w3.org/2000/svg">
<path fill-rule="evenodd" clip-rule="evenodd" d="M21.2214 18.4665C21.3829 18.9206 21.8452 19.1949 22.3212 19.119L35.0874 17.0828C35.5004 17.017 35.8288 16.701 35.9106 16.2909L37.2654 9.49865C37.3875 8.88644 36.925 8.31324 36.3008 8.30317L18.9412 8.02324C18.2435 8.01199 17.7491 8.70067 17.9829 9.35812L21.2214 18.4665Z" fill="white"/>
<path fill-rule="evenodd" clip-rule="evenodd" d="M21.8262 26.3593C23.1109 26.3593 24.1523 25.3178 24.1523 24.0331C24.1523 22.7484 23.1109 21.707 21.8262 21.707C20.5415 21.707 19.5 22.7484 19.5 24.0331C19.5 25.3178 20.5415 26.3593 21.8262 26.3593Z" fill="white"/>
<path fill-rule="evenodd" clip-rule="evenodd" d="M33.457 26.3593C34.7417 26.3593 35.7831 25.3178 35.7831 24.0331C35.7831 22.7484 34.7417 21.707 33.457 21.707C32.1723 21.707 31.1308 22.7484 31.1308 24.0331C31.1308 25.3178 32.1723 26.3593 33.457 26.3593Z" fill="white"/>
<path fill-rule="evenodd" clip-rule="evenodd" d="M15 5C16.933 5 18.5 4.77614 18.5 4.5C18.5 4.22386 16.933 4 15 4C13.067 4 11.5 4.22386 11.5 4.5C11.5 4.77614 13.067 5 15 5Z" fill="white"/>
<path fill-rule="evenodd" clip-rule="evenodd" d="M12.4544 3.65147C13.1177 3.55672 14.0175 3.5 15 3.5C15.9825 3.5 16.8823 3.55672 17.5456 3.65147C17.8735 3.69831 18.1649 3.75734 18.3849 3.83167C18.4917 3.86772 18.6118 3.91717 18.7151 3.98926C18.8002 4.04864 19 4.21275 19 4.5C19 4.78725 18.8002 4.95136 18.7151 5.01074C18.6118 5.08283 18.4917 5.13228 18.3849 5.16833C18.1649 5.24266 17.8735 5.30169 17.5456 5.34853C16.8823 5.44328 15.9825 5.5 15 5.5C14.0175 5.5 13.1177 5.44328 12.4544 5.34853C12.1265 5.30169 11.8351 5.24266 11.6151 5.16833C11.5083 5.13228 11.3882 5.08283 11.2849 5.01074C11.1998 4.95136 11 4.78725 11 4.5C11 4.21275 11.1998 4.04864 11.2849 3.98926C11.3882 3.91717 11.5083 3.86772 11.6151 3.83167C11.8351 3.75734 12.1265 3.69831 12.4544 3.65147Z" fill="white"/>
</svg>
